<svg id="Слой_1" data-name="Слой 1" xmlns="http://www.w3.org/2000/svg" viewBox="0 0 16 16"><title>Монтажная область 1</title><path d="M6.65,0H9.36A.34.34,0,0,1,9.7.35L9.56,4.44a.11.11,0,0,1-.16.1,3.68,3.68,0,0,0-2.53-.09l-.25.09a.11.11,0,0,1-.16-.1L6.31.35A.34.34,0,0,1,6.65,0Z"/><path d="M0,6.79.85,4.21A.34.34,0,0,1,1.29,4L5.13,5.4a.11.11,0,0,1,0,.18,3.7,3.7,0,0,0-.86,2.65.11.11,0,0,1-.15.12L.25,7.22A.34.34,0,0,1,0,6.79Z"/><path d="M7.19,11.72,4.9,15.11a.34.34,0,0,1-.48.09L2.23,13.61a.34.34,0,0,1-.07-.49L4.68,9.9a.11.11,0,0,1,.19,0,3.7,3.7,0,0,0,2.26,1.64A.11.11,0,0,1,7.19,11.72Z"/><path d="M13.78,13.61,11.59,15.2a.34.34,0,0,1-.48-.09L8.82,11.72a.11.11,0,0,1,.07-.17l.26-.07a3.68,3.68,0,0,0,2-1.56.11.11,0,0,1,.19,0l2.52,3.22A.34.34,0,0,1,13.78,13.61Z"/><path d="M6.61,4.54l.25-.09a3.68,3.68,0,0,1,2.53.09.11.11,0,0,0,.16-.1L9.7.35A.34.34,0,0,0,9.36,0H6.65a.34.34,0,0,0-.34.35l.14,4.08A.11.11,0,0,0,6.61,4.54Z"/><path d="M15.81,5.17l-1.36-.69a.34.34,0,0,0-.26,0L9.91,5.85A2.84,2.84,0,0,0,5.25,8.66l.05.18L5.37,9A2.84,2.84,0,0,0,7.81,10.8H8.2a2.84,2.84,0,0,0,2.59-2.25l1-.34a.11.11,0,0,0,.07-.06l.38-.75a.11.11,0,0,1,.15,0l.69.35a.11.11,0,0,0,.15,0L13.63,7a.11.11,0,0,1,.15,0l.75.38a.11.11,0,0,0,.09,0l.45-.15a.34.34,0,0,0,.2-.17L16,5.63A.34.34,0,0,0,15.81,5.17ZM8,8.81A.85.85,0,1,1,8.86,8,.85.85,0,0,1,8,8.81Z"/></svg>